<?xml version="1.0" encoding="utf-8"?>
<svg viewBox="1 246 401.992 96.931" xmlns="http://www.w3.org/2000/svg">
  <defs>
    <clipPath id="clip-path-45" transform="translate(-25 -62.83)">
      <path d="M141.15,351.77v14.9a4.1,4.1,0,0,0,.69,2.72,4,4,0,0,0,2.16,1.07v1.16l-6.33,3.21a7.12,7.12,0,0,1-2.39-1.54,3,3,0,0,1-1.1-2l-7.26,3.53-.51-.29a11.82,11.82,0,0,1-1.2-.78,10.5,10.5,0,0,1-1.48-1.3,5.44,5.44,0,0,1-1.73-3.95v-8.63c0-.56,1-1.28,3-2.16a46.43,46.43,0,0,1,6-2.15l3.08-.9c0-2-.58-3.39-1.74-4.18s-3.41-1.18-6.74-1.18v-1.59q9-2.89,10.1-2.89c1.28,0,2.5.75,3.65,2.26A7.6,7.6,0,0,1,141.15,351.77ZM129,366.62a3,3,0,0,0,.89,2.23,2.87,2.87,0,0,0,2,.87,4.24,4.24,0,0,0,2.31-.79V357a20.45,20.45,0,0,0-2.17.8,6.16,6.16,0,0,0-1.54,1c-1,.83-1.51,2.29-1.51,4.36Z" fill="none" clip-rule="evenodd"/>
    </clipPath>
    <clipPath id="clip-path-2" transform="translate(-25 -62.83)">
      <rect y="-1.17" width="1288" height="541" fill="none"/>
    </clipPath>
    <clipPath id="clip-path-47" transform="translate(-25 -62.83)">
      <path d="M146.83,371.25V353.44a5.34,5.34,0,0,0-.82-3,2.33,2.33,0,0,0-2-1.26V348q.41,0,6.32-3.2c.27.06.6.16,1,.28a5.23,5.23,0,0,1,1.54,1,2.54,2.54,0,0,1,1,1.93c.22-.1.89-.43,2-1,2.86-1.47,4.62-2.21,5.3-2.21a3.88,3.88,0,0,1,2.26.95,6.33,6.33,0,0,1,1.89,2.25c.07,0,.86-.39,2.37-1.09q4.53-2.12,5.46-2.11c1.23,0,2.39.74,3.47,2.21a7,7,0,0,1,1.64,4v15.93a3.13,3.13,0,0,0,2.83,3.42v1.15l-6.32,3.21a7,7,0,0,1-2.38-1.54,3,3,0,0,1-1.1-2v-15.5c0-2.28-.33-3.79-1-4.54a3.22,3.22,0,0,0-2.54-1.14l-1.69.33v16.65a3.14,3.14,0,0,0,2.85,3.42v1.15l-6.34,3.21a6.85,6.85,0,0,1-2.37-1.54,3,3,0,0,1-1.1-2V356c0-4-1.07-6-3.19-6l-2,.31v16.77c0,2.13.79,3.35,2.37,3.63v1.16l-5.85,3a7,7,0,0,1-2.39-1.54,3,3,0,0,1-1.1-2" fill="none" clip-rule="evenodd"/>
    </clipPath>
    <clipPath id="clip-path-49" transform="translate(-25 -62.83)">
      <path d="M190.57,348.77v18.37q0,3.17,2.43,3.59v1.14l-6,3a7.18,7.18,0,0,1-2.45-1.52,3,3,0,0,1-1.13-2V352.92q0-3.17-2.43-3.57v-1.14l6-3a6.9,6.9,0,0,1,2.43,1.53,3,3,0,0,1,1.13,2m-8-10v-3.17a9.47,9.47,0,0,1,2.46-.95,17.14,17.14,0,0,1,2.85-.8c.26,0,.63.29,1.13.88a2.82,2.82,0,0,1,.74,1.82v3.78a8.9,8.9,0,0,1-2.38,1,14.66,14.66,0,0,1-2.9.8q-.54,0-1.23-.9a4,4,0,0,1-.67-2.42" fill="none" clip-rule="evenodd"/>
    </clipPath>
    <clipPath id="clip-path-50" transform="translate(-25 -62.83)">
      <rect x="181" y="333.83" width="12" height="41" fill="none"/>
    </clipPath>
    <clipPath id="clip-path-51" transform="translate(-25 -62.83)">
      <path d="M203.57,338.37v28.76q0,3.17,2.43,3.59v1.15l-6,3a7.06,7.06,0,0,1-2.45-1.53,3,3,0,0,1-1.13-2V342.52q0-3.16-2.43-3.58v-1.15l6-3a6.9,6.9,0,0,1,2.43,1.53,3,3,0,0,1,1.13,2" fill="none" clip-rule="evenodd"/>
    </clipPath>
    <clipPath id="clip-path-53" transform="translate(-25 -62.83)">
      <path d="M215.57,348.77v18.37q0,3.17,2.43,3.59v1.14l-6,3a7.18,7.18,0,0,1-2.45-1.52,3,3,0,0,1-1.13-2V352.92q0-3.17-2.43-3.57v-1.14l6-3a6.9,6.9,0,0,1,2.43,1.53,3,3,0,0,1,1.13,2m-8-10v-3.17a9.47,9.47,0,0,1,2.46-.95,17.14,17.14,0,0,1,2.85-.8c.26,0,.63.29,1.13.88a2.82,2.82,0,0,1,.74,1.82v3.78a8.9,8.9,0,0,1-2.38,1,14.66,14.66,0,0,1-2.9.8q-.54,0-1.23-.9a4,4,0,0,1-.67-2.42" fill="none" clip-rule="evenodd"/>
    </clipPath>
    <clipPath id="clip-path-54" transform="translate(-25 -62.83)">
      <rect x="206" y="333.83" width="12" height="41" fill="none"/>
    </clipPath>
    <clipPath id="clip-path-55" transform="translate(-25 -62.83)">
      <path d="M239.15,351.77v14.9a4.1,4.1,0,0,0,.69,2.72,4,4,0,0,0,2.16,1.07v1.16l-6.33,3.21a7.12,7.12,0,0,1-2.39-1.54,3,3,0,0,1-1.1-2l-7.25,3.53-.52-.29a11.82,11.82,0,0,1-1.2-.78,10.5,10.5,0,0,1-1.48-1.3,5.44,5.44,0,0,1-1.73-3.95v-8.63c0-.56,1-1.28,3-2.16a46.43,46.43,0,0,1,6-2.15l3.08-.9c0-2-.58-3.39-1.74-4.18s-3.41-1.18-6.74-1.18v-1.59q9-2.89,10.1-2.89c1.28,0,2.5.75,3.65,2.26A7.6,7.6,0,0,1,239.15,351.77ZM227,366.62a3,3,0,0,0,.89,2.23,2.87,2.87,0,0,0,2,.87,4.24,4.24,0,0,0,2.31-.79V357a20.45,20.45,0,0,0-2.17.8,6.16,6.16,0,0,0-1.54,1c-1,.83-1.51,2.29-1.51,4.36Z" fill="none" clip-rule="evenodd"/>
    </clipPath>
    <clipPath id="clip-path-56" transform="translate(-25 -62.83)">
      <rect x="220" y="344.83" width="22" height="30" fill="none"/>
    </clipPath>
    <clipPath id="clip-path-57" transform="translate(-25 -62.83)">
      <path d="M82.65,313.17a14.8,14.8,0,0,0-3.28,9q0,5.37,5,10.63L86.14,331a10.71,10.71,0,0,1-4-8.23,6.27,6.27,0,0,1,1.28-3.94,4,4,0,0,1,3.33-1.66,18.11,18.11,0,0,1,5.64,1.6,18.88,18.88,0,0,0,6,1.6q3,0,6.87-3.2c.14-.15.68-.67,1.64-1.54s2.39-2.15,4.31-3.83L109.82,310c-2.12,1.9-4,2.86-5.74,2.86-.27,0-2.36-.73-6.25-2.18a24,24,0,0,0-7.58-1.82h0c-2.87,0-5.39,1.45-7.58,4.34" fill="none" clip-rule="evenodd"/>
    </clipPath>
    <clipPath id="clip-path-59" transform="translate(-25 -62.83)">
      <path d="M89.1,355.24a7.86,7.86,0,0,1-.61-2.57,5.22,5.22,0,0,1,1.17-3.37,3.6,3.6,0,0,1,2.9-1.44,3.46,3.46,0,0,1,2.24,1v16.8l-1.42,1.17,1.42,2,7.73-6.64V326l1.53-1.29-1.53-1.92-7.73,6.52V340.8q-9.26,0-9.26,9.2a21.44,21.44,0,0,0,1,6.31Z" fill="none" clip-rule="evenodd"/>
    </clipPath>
    <clipPath id="clip-path-61" transform="translate(-25 -62.83)">
      <path d="M119.94,349.25h-5.26v23.06q-2,1.72-3.86,3.34c-1.27,1.08-2.56,2.2-3.87,3.34-3.24,2.38-6.29,3.56-9.18,3.56q-3.4,0-10-5-6.39-5-8.66-5-4.34,0-7.12,4.53a16.29,16.29,0,0,0-2.27,8.73,17.25,17.25,0,0,0,4.85,12.39,15.31,15.31,0,0,0,11.76,5.18,18.6,18.6,0,0,0,3.92-.43v2.26a17.56,17.56,0,0,1-4,.54h0a17.47,17.47,0,0,1-13.82-6A21.38,21.38,0,0,1,67,384.92a25.15,25.15,0,0,1,4.23-13.8Q75.7,364,82.71,364q4.74,0,11.86,6.46c4.81,4.25,7.73,6.36,8.77,6.36a4.44,4.44,0,0,0,3.51-1.94V322.94l16.5-14.11c1.92,3.67,3.89,5.49,5.88,5.49q2.07,0,7.32-4.2l1.45,2.05q-9.18,8.19-12.8,8.19l-2.88-.43h0l-2.38-.64a11.59,11.59,0,0,1-2.88-1.94l-2.38,1.94v21.88H131l-8.66,7.22" fill="none" clip-rule="evenodd"/>
    </clipPath>
    <clipPath id="clip-path-62" transform="translate(-25 -62.83)">
      <rect x="67.03" y="308.83" width="70.97" height="97" fill="none"/>
    </clipPath>
    <clipPath id="clip-path-63" transform="translate(-25 -62.83)">
      <path d="M251,374.83v-.31l.58-.23a1.37,1.37,0,0,0,.78-.58,2,2,0,0,0,.2-.95V356.92a2.06,2.06,0,0,0-.2-1,1.32,1.32,0,0,0-.78-.58l-.58-.24v-.3h7.47v.3l-.5.21a1.5,1.5,0,0,0-.77.56,1.76,1.76,0,0,0-.21,1v7.36h7v-7.36a2,2,0,0,0-.2-1,1.49,1.49,0,0,0-.78-.56l-.52-.21v-.3H270v.3l-.58.24a1.33,1.33,0,0,0-.77.58,1.84,1.84,0,0,0-.21,1v15.84a1.78,1.78,0,0,0,.21.95,1.37,1.37,0,0,0,.77.58l.58.23v.31h-7.49v-.31l.52-.19a1.51,1.51,0,0,0,.78-.58,1.92,1.92,0,0,0,.2-.95v-8h-7v8a1.5,1.5,0,0,0,1,1.53l.5.19v.31Z" fill="none" clip-rule="evenodd"/>
    </clipPath>
    <clipPath id="clip-path-65" transform="translate(-25 -62.83)">
      <path d="M272,374.83v-.3l.75-.28a2.61,2.61,0,0,0,.95-.58,2.43,2.43,0,0,0,.53-1l6.24-17.85H283l6.14,18a3,3,0,0,0,.53,1,2.33,2.33,0,0,0,.94.58l.37.13v.3h-7.68v-.3l.45-.15a1.15,1.15,0,0,0,.78-.67,1.74,1.74,0,0,0-.05-1l-1.41-4.36h-6.71l-1.44,4.25a2.25,2.25,0,0,0-.15,1.07c0,.26.3.47.73.63l.66.28v.3Zm4.59-7.13h6.33l-3.07-9.4Z" fill="none" clip-rule="evenodd"/>
    </clipPath>
    <clipPath id="clip-path-67" transform="translate(-25 -62.83)">
      <path d="M291,374.83v-.31l.62-.23a1.44,1.44,0,0,0,.82-.58,1.93,1.93,0,0,0,.22-1V356.92a2.06,2.06,0,0,0-.2-1,1.3,1.3,0,0,0-.84-.58l-.62-.24v-.3h8v.3l-.62.24a1.49,1.49,0,0,0-.84.58,2.06,2.06,0,0,0-.2,1v15.82a2,2,0,0,0,.2.95,1.79,1.79,0,0,0,.84.6l.62.23v.31Z" fill="none" clip-rule="evenodd"/>
    </clipPath>
    <clipPath id="clip-path-69" transform="translate(-25 -62.83)">
      <path d="M300,374.83v-.31l.64-.21a1.32,1.32,0,0,0,.78-.56,2.17,2.17,0,0,0,.19-1V356.92a2.24,2.24,0,0,0-.17-.95,1.29,1.29,0,0,0-.75-.58l-.69-.26v-.3h8.65a9.33,9.33,0,0,1,5.45,1.35,4.31,4.31,0,0,1,1.9,3.73,4.42,4.42,0,0,1-1,2.67,6.25,6.25,0,0,1-3.14,2.06l4.21,8.38a3.33,3.33,0,0,0,.62.82,3.21,3.21,0,0,0,.92.56l.39.15v.28h-5.41l-4.46-9.56h-2.06v7.49a2.15,2.15,0,0,0,.17.95,1.25,1.25,0,0,0,.77.54l.71.27v.31Zm6.07-10.16h1.46a3.83,3.83,0,0,0,3.13-1.17,5.25,5.25,0,0,0,1-3.46,5.52,5.52,0,0,0-.9-3.47,3.67,3.67,0,0,0-3.05-1.14h-1.61Z" fill="none" clip-rule="evenodd"/>
    </clipPath>
    <clipPath id="clip-path-71" transform="translate(-25 -62.83)">
      <path d="M333.28,374.83a14.83,14.83,0,0,1-3.4-.41,10.79,10.79,0,0,1-2.88-1.07l.15-4.09h.3l.95,1.94a8.75,8.75,0,0,0,.9,1.5,3.32,3.32,0,0,0,1.33,1,4.1,4.1,0,0,0,1.17.41,6.79,6.79,0,0,0,1.26.11,4.16,4.16,0,0,0,2.93-1,3.39,3.39,0,0,0,1.07-2.57,3.28,3.28,0,0,0-.73-2.29,7.57,7.57,0,0,0-2.34-1.63l-1.23-.54a13.63,13.63,0,0,1-4.08-2.63,5.45,5.45,0,0,1-1.47-4,5.07,5.07,0,0,1,.93-3.06,5.8,5.8,0,0,1,2.56-2,9.8,9.8,0,0,1,3.87-.7,10.46,10.46,0,0,1,3.05.43,8.86,8.86,0,0,1,2.5,1.15l-.2,3.62h-.3l-1.22-2.27a4.87,4.87,0,0,0-1-1.48,3.2,3.2,0,0,0-1.19-.64,5.58,5.58,0,0,0-.73-.15,6.35,6.35,0,0,0-.84,0,3.93,3.93,0,0,0-2.62.9,2.92,2.92,0,0,0-1.05,2.38,3.55,3.55,0,0,0,.81,2.46,6.91,6.91,0,0,0,2.41,1.63l1.38.62a12.19,12.19,0,0,1,4.17,2.7,5.76,5.76,0,0,1-.73,8,8.69,8.69,0,0,1-5.7,1.68" fill="none" clip-rule="evenodd"/>
    </clipPath>
    <clipPath id="clip-path-72" transform="translate(-25 -62.83)">
      <rect x="327" y="353.83" width="14" height="21" fill="none"/>
    </clipPath>
    <clipPath id="clip-path-73" transform="translate(-25 -62.83)">
      <path d="M346.19,374.83v-.31l1.24-.3a1.43,1.43,0,0,0,1.27-1.52V355.43h-2.62a2,2,0,0,0-1.64.6,9.61,9.61,0,0,0-1,1.62l-1.11,2.11H342l.15-4.93h17.74l.11,4.93h-.31l-1.11-2.11a8,8,0,0,0-1-1.62,2,2,0,0,0-1.64-.6h-2.59V372.7a1.41,1.41,0,0,0,1.24,1.52l1.26.3v.31Z" fill="none" clip-rule="evenodd"/>
    </clipPath>
    <clipPath id="clip-path-75" transform="translate(-25 -62.83)">
      <path d="M370.42,374.83a9.38,9.38,0,0,1-4-.8,5.83,5.83,0,0,1-2.68-2.52,9.21,9.21,0,0,1-1-4.57V356.78a1.45,1.45,0,0,0-1.15-1.49l-.65-.17v-.29h8.18v.29l-.86.23a1.35,1.35,0,0,0-1.09,1.47v10.9a6.07,6.07,0,0,0,1.15,4.07,4.2,4.2,0,0,0,3.32,1.3,4.65,4.65,0,0,0,3.54-1.39,5.4,5.4,0,0,0,1.33-3.92V356.94a2.83,2.83,0,0,0-.19-1,1.06,1.06,0,0,0-.78-.61l-.73-.17v-.29H379v.29l-.8.21a.93.93,0,0,0-.75.57,2.66,2.66,0,0,0-.17,1v10.8a7.92,7.92,0,0,1-.86,3.77A6.27,6.27,0,0,1,374,374a7.3,7.3,0,0,1-3.61.86" fill="none" clip-rule="evenodd"/>
    </clipPath>
    <clipPath id="clip-path-77" transform="translate(-25 -62.83)">
      <path d="M380,374.83v-.3l.63-.24a1.52,1.52,0,0,0,.95-1.55V356.91a1.47,1.47,0,0,0-.95-1.55l-.63-.23v-.3h7.85a11.36,11.36,0,0,1,5.4,1.2,8.19,8.19,0,0,1,3.5,3.42,10.78,10.78,0,0,1,1.25,5.34,10.41,10.41,0,0,1-1.33,5.43,8.58,8.58,0,0,1-3.73,3.42,12.6,12.6,0,0,1-5.64,1.19Zm6-.61h1.26a6.14,6.14,0,0,0,3.46-.86,4.92,4.92,0,0,0,1.9-2.9,26.29,26.29,0,0,0,0-11.26,5,5,0,0,0-1.88-2.91,5.88,5.88,0,0,0-3.35-.86H386Z" fill="none" clip-rule="evenodd"/>
    </clipPath>
    <clipPath id="clip-path-79" transform="translate(-25 -62.83)">
      <path d="M400,374.83v-.31l.62-.23a1.44,1.44,0,0,0,.82-.58,1.93,1.93,0,0,0,.22-1V356.92a2.06,2.06,0,0,0-.2-1,1.3,1.3,0,0,0-.84-.58l-.62-.24v-.3h8v.3l-.62.24a1.49,1.49,0,0,0-.84.58,2.06,2.06,0,0,0-.2,1v15.82a2,2,0,0,0,.2.95,1.79,1.79,0,0,0,.84.6l.62.23v.31Z" fill="none" clip-rule="evenodd"/>
    </clipPath>
    <clipPath id="clip-path-81" transform="translate(-25 -62.83)">
      <path d="M418.51,374.83a9.83,9.83,0,0,1-3.56-.67,9.09,9.09,0,0,1-3-2,9.39,9.39,0,0,1-2.14-3.26,12.67,12.67,0,0,1-.77-4.6,12.46,12.46,0,0,1,.77-4.55,9.48,9.48,0,0,1,2.14-3.28,9.88,9.88,0,0,1,3.07-2,9.51,9.51,0,0,1,3.53-.68,9.62,9.62,0,0,1,3.53.66,8.65,8.65,0,0,1,3,1.95,9.12,9.12,0,0,1,2.12,3.3,12.43,12.43,0,0,1,.79,4.59,12.27,12.27,0,0,1-.79,4.54,9.29,9.29,0,0,1-2.12,3.3,9,9,0,0,1-3,2,9.63,9.63,0,0,1-3.53.67m0-.62a4,4,0,0,0,2.68-.88,5.62,5.62,0,0,0,1.5-3.07,37.71,37.71,0,0,0,0-11.87,5.52,5.52,0,0,0-1.5-3,4.41,4.41,0,0,0-5.34,0,5.45,5.45,0,0,0-1.5,3,37.71,37.71,0,0,0,0,11.87,5.56,5.56,0,0,0,1.5,3.07,3.93,3.93,0,0,0,2.66.88" fill="none" clip-rule="evenodd"/>
    </clipPath>
    <clipPath id="clip-path-83" transform="translate(-25 -62.83)">
      <path d="M29.72,362.83v-.28l1.11-.27A1.27,1.27,0,0,0,32,360.91V345.37H29.63a1.79,1.79,0,0,0-1.46.54,8.82,8.82,0,0,0-.91,1.45l-1,1.9H26l.14-4.43H41.9l.1,4.43h-.27l-1-1.9a7.22,7.22,0,0,0-.89-1.45,1.8,1.8,0,0,0-1.46-.54H36.08v15.54a1.27,1.27,0,0,0,1.11,1.37l1.12.27v.28Z" fill="none" clip-rule="evenodd"/>
    </clipPath>
    <clipPath id="clip-path-84" transform="translate(-25 -62.83)">
      <rect x="26" y="344.83" width="16" height="18" fill="none"/>
    </clipPath>
    <clipPath id="clip-path-85" transform="translate(-25 -62.83)">
      <path d="M43,362.83v-.28l.55-.21a1.18,1.18,0,0,0,.73-.52,1.67,1.67,0,0,0,.2-.85V346.71a1.76,1.76,0,0,0-.2-.88,1.26,1.26,0,0,0-.73-.52L43,345.1v-.27h7.07v.27l-.47.19a1.36,1.36,0,0,0-.73.51,1.49,1.49,0,0,0-.2.85v6.62h6.66v-6.62a1.57,1.57,0,0,0-.2-.85,1.28,1.28,0,0,0-.73-.51l-.49-.19v-.27H61v.27l-.55.21a1.33,1.33,0,0,0-.73.52,1.66,1.66,0,0,0-.2.88V361a1.57,1.57,0,0,0,.2.85,1.24,1.24,0,0,0,.73.52l.55.21v.28H53.91v-.28l.49-.17a1.34,1.34,0,0,0,.73-.52,1.61,1.61,0,0,0,.2-.86v-7.18H48.67V361a1.36,1.36,0,0,0,.93,1.38l.47.17v.28Z" fill="none" clip-rule="evenodd"/>
    </clipPath>
    <clipPath id="clip-path-86" transform="translate(-25 -62.83)">
      <rect x="43" y="344.83" width="18" height="18" fill="none"/>
    </clipPath>
    <clipPath id="clip-path-87" transform="translate(-25 -62.83)">
      <path d="M62,362.83v-.28l.63-.25a1.19,1.19,0,0,0,.65-.5,1.57,1.57,0,0,0,.2-.85V346.71a2,2,0,0,0-.16-.86,1.22,1.22,0,0,0-.69-.52L62,345.1v-.27H75.27l.18,4.2h-.28L74,346.45a2.74,2.74,0,0,0-.53-.77,1.09,1.09,0,0,0-.83-.31h-5v7.88h3a1.1,1.1,0,0,0,.85-.29,2.35,2.35,0,0,0,.51-.77l.58-1.09h.27V356h-.27l-.58-1.15a2.94,2.94,0,0,0-.51-.77,1.1,1.1,0,0,0-.85-.29h-3v8.48h5.59a1.14,1.14,0,0,0,.85-.29,2,2,0,0,0,.51-.79l1.15-2.58H76l-.16,4.21Z" fill="none" clip-rule="evenodd"/>
    </clipPath>
    <clipPath id="clip-path-88" transform="translate(-25 -62.83)">
      <rect x="62" y="344.83" width="14" height="18" fill="none"/>
    </clipPath>
  </defs>
  <g clip-path="url(#clip-path-45)">
    <g clip-path="url(#clip-path-2)">
      <rect x="96" y="281" width="24" height="32"/>
    </g>
  </g>
  <g clip-path="url(#clip-path-47)">
    <g clip-path="url(#clip-path-2)">
      <rect x="118" y="281" width="39" height="32"/>
    </g>
  </g>
  <g clip-path="url(#clip-path-49)">
    <g clip-path="url(#clip-path-50)">
      <rect x="155" y="270" width="14" height="43"/>
    </g>
  </g>
  <g clip-path="url(#clip-path-51)">
    <g clip-path="url(#clip-path-2)">
      <rect x="168" y="271" width="14" height="42"/>
    </g>
  </g>
  <g clip-path="url(#clip-path-53)">
    <g clip-path="url(#clip-path-54)">
      <rect x="180" y="270" width="14" height="43"/>
    </g>
  </g>
  <g clip-path="url(#clip-path-55)">
    <g clip-path="url(#clip-path-56)">
      <rect x="194" y="281" width="24" height="32"/>
    </g>
  </g>
  <g clip-path="url(#clip-path-57)">
    <g clip-path="url(#clip-path-2)">
      <rect x="53.37" y="245" width="33.89" height="26"/>
    </g>
  </g>
  <g clip-path="url(#clip-path-59)">
    <g clip-path="url(#clip-path-2)">
      <rect x="59.54" y="259" width="20.51" height="48"/>
    </g>
  </g>
  <g clip-path="url(#clip-path-61)">
    <g clip-path="url(#clip-path-62)">
      <rect x="41.03" y="245" width="72.97" height="99"/>
    </g>
  </g>
  <g clip-path="url(#clip-path-63)">
    <g clip-path="url(#clip-path-2)">
      <rect x="225" y="291" width="21" height="22"/>
    </g>
  </g>
  <g clip-path="url(#clip-path-65)">
    <g clip-path="url(#clip-path-2)">
      <rect x="246" y="291" width="21" height="22"/>
    </g>
  </g>
  <g clip-path="url(#clip-path-67)">
    <g clip-path="url(#clip-path-2)">
      <rect x="265" y="291" width="10" height="22"/>
    </g>
  </g>
  <g clip-path="url(#clip-path-69)">
    <g clip-path="url(#clip-path-2)">
      <rect x="274" y="291" width="20" height="22"/>
    </g>
  </g>
  <g clip-path="url(#clip-path-71)">
    <g clip-path="url(#clip-path-72)">
      <rect x="301" y="290" width="16" height="23"/>
    </g>
  </g>
  <g clip-path="url(#clip-path-73)">
    <g clip-path="url(#clip-path-2)">
      <rect x="316" y="291" width="20" height="22"/>
    </g>
  </g>
  <g clip-path="url(#clip-path-75)">
    <g clip-path="url(#clip-path-2)">
      <rect x="335" y="291" width="20" height="22"/>
    </g>
  </g>
  <g clip-path="url(#clip-path-77)">
    <g clip-path="url(#clip-path-2)">
      <rect x="354" y="291" width="20" height="22"/>
    </g>
  </g>
  <g clip-path="url(#clip-path-79)">
    <g clip-path="url(#clip-path-2)">
      <rect x="374" y="291" width="10" height="22"/>
    </g>
  </g>
  <g clip-path="url(#clip-path-81)">
    <g clip-path="url(#clip-path-2)">
      <rect x="383" y="290" width="21" height="23"/>
    </g>
  </g>
  <g clip-path="url(#clip-path-83)">
    <g clip-path="url(#clip-path-84)">
      <rect y="281" width="18" height="20"/>
    </g>
  </g>
  <g clip-path="url(#clip-path-85)">
    <g clip-path="url(#clip-path-86)">
      <rect x="17" y="281" width="20" height="20"/>
    </g>
  </g>
  <g clip-path="url(#clip-path-87)">
    <g clip-path="url(#clip-path-88)">
      <rect x="36" y="281" width="16" height="20"/>
    </g>
  </g>
</svg>